# xmcd CD database file
#
# Track frame offsets:
#	150
#	18500
#	39030
#	57407
#	74167
#	95137
#	111370
#	130922
#	156230
#	174927
#
# Disc length: 2579 seconds
#
# Revision: 0
# Processed by: cddbd v1.4PL0 Copyright (c) Steve Scherf et al.
# Submitted via: CDex 1.50beta10
#
DISCID=8a0a110a
DTITLE=Lloyd Spiegel - Lloyd Spiegel
DYEAR=1999
DGENRE=Blues
TTITLE0=Nadine
TTITLE1=The Blues Had A Baby
TTITLE2=Voices Of Yesterday
TTITLE3=Lonely
TTITLE4=Midnight Special
TTITLE5=The Storm
TTITLE6=Right Next Door
TTITLE7=Nerry-Go-Round
TTITLE8=All That's Left Of Me
TTITLE9=Life Is A Gamble
EXTD=YEAR: 1999
EXTT0=
EXTT1=
EXTT2=
EXTT3=
EXTT4=
EXTT5=
EXTT6=
EXTT7=
EXTT8=
EXTT9=
PLAYORDER=
